# xmcd CD database file
#
# Track frame offsets:
#	150
#	13136
#	30235
#	45543
#	60091
#	76402
#	93937
#	110272
#	128529
#	141613
#	155095
#	169098
#
# Disc length: 2436 seconds
#
# Revision: 0
# Processed by: cddbd v1.5.2PL0 Copyright (c) Steve Scherf et al.
# Submitted via: CDex 1.70beta2
#
DISCID=8d09820c
DTITLE=Rio Carter - Weihnachtszeit
DYEAR=1900
DGENRE=Country
TTITLE0=Rocky Mountain Christmas
TTITLE1=Ich spiel für ihn den Weihnachtsmann
TTITLE2=Weihnachtszeit
TTITLE3=Dies´  Jahr kommt der Weihnachtsmann
TTITLE4=Weiße Weihnacht
TTITLE5=Weihnachten allein
TTITLE6=Trucker-Weihnachtsball
TTITLE7=Heute ist Weihnacht
TTITLE8=Stille Nacht, heilige Nacht
TTITLE9=Mein Weihnachtswunsch bist du allein
TTITLE10=Meine Tochter ist ein Christkind
TTITLE11=Liebe Eltern
EXTD=
EXTT0=
EXTT1=
EXTT2=
EXTT3=
EXTT4=
EXTT5=
EXTT6=
EXTT7=
EXTT8=
EXTT9=
EXTT10=
EXTT11=
PLAYORDER=
